<svg xmlns="http://www.w3.org/2000/svg" width="23.795" height="61" viewBox="0 0 23.795 61">
  <path id="Path_1409" data-name="Path 1409" d="M618.04,448a1.58,1.58,0,0,1-.04.38v.02a2.04,2.04,0,0,1-.11.35c0,.01-.01.02-.01.03a3.236,3.236,0,0,1-.17.32c-.01,0-.01.01-.01.02a3.476,3.476,0,0,1-.25.29l-9.9,9.9a1.994,1.994,0,1,1-2.82-2.82l6.49-6.49H559.04a2.006,2.006,0,0,1-2-2,2.015,2.015,0,0,1,2-2h52.18l-6.49-6.49a1.994,1.994,0,1,1,2.82-2.82l9.76,9.77.14.13a3.476,3.476,0,0,1,.25.29c0,.01,0,.02.01.02a3.236,3.236,0,0,1,.17.32c0,.01.01.02.01.03a2.04,2.04,0,0,1,.11.35v.02A1.58,1.58,0,0,1,618.04,448Z" transform="translate(459.895 -557.04) rotate(90)" fill="#d9dbe1"/>
</svg>
